<svg width="339" height="300" viewBox="0 0 339 300" fill="none" xmlns="http://www.w3.org/2000/svg">
<path d="M183.948 251.331C147.55 253.718 107.376 260.307 88.273 221.479C61.3351 166.743 99.7438 99.4984 156.079 84.9203C186.89 76.9486 224.236 88.9458 221.979 126.391C220.134 156.992 190.237 174.415 163.395 180.334C155.139 182.158 135.377 185.1 127.542 183.699C122.185 182.739 120.244 177.718 121.781 172.733C123.792 166.197 133.454 168.469 138.434 168.011C154.296 166.54 170.799 163.774 184.756 155.732C225.721 132.125 206.16 85.8364 156.43 100.353C111.601 113.442 81.6329 167.888 101.483 212.204C117.424 247.781 157.159 235.079 187.487 234.612C192.336 234.542 196.262 235.881 197.983 240.831C201.945 252.221 201.277 266.561 199.775 278.312C215.102 273.185 227.363 259.118 233.696 244.478C236.418 238.189 237.358 230.737 239.738 225.143C240.38 223.628 241.969 221.673 243.34 220.818C246.247 219.013 262.513 217.401 267.845 216.026C344.873 196.163 341.939 91.1568 260.221 79.2388C256.655 78.7191 254.029 80.1021 250.805 77.5652C247.494 74.9667 247.345 70.3422 245.579 66.9333C200.645 -19.3726 58.6738 13.8267 22.3379 91.3065C9.84823 117.943 13.748 153.019 44.4363 163.862C51.3574 166.302 64.4443 165.245 64.4355 174.767C64.4355 189.231 38.2617 179.348 31.1649 175.578C-5.90874 155.847 -6.83097 109.672 12.3426 76.5258C61.0189 -7.6573 213.714 -36.7342 261.503 63.683C319.261 68.5189 353.085 123.845 333.341 178.529C320.825 213.199 289.03 230.155 254.055 234.736C252.413 235.846 250.577 244.795 249.453 247.579C240.836 268.992 226.353 285.103 205.054 294.325C199.239 296.845 179.987 305.213 177.773 295.206C176.623 290.009 180.795 284.522 182.367 279.518C185.371 269.97 185.178 261.17 183.939 251.331H183.948Z" fill="black"/>
</svg>
