<svg width="341" height="426" viewBox="0 0 341 426" fill="none" xmlns="http://www.w3.org/2000/svg">
<path d="M138.152 0.883945C188.499 -4.36811 238.932 13.4318 263.157 63.7375C321.255 68.9467 355.173 124.776 335.281 179.867C322.631 214.911 290.568 232.012 255.506 236.682C255.446 236.757 255.375 236.861 255.294 236.998C255.119 237.296 254.929 237.697 254.728 238.194C254.326 239.185 253.919 240.456 253.519 241.812C253.118 243.169 252.738 244.563 252.377 245.827C252.024 247.065 251.684 248.197 251.38 248.95C242.812 270.243 228.474 286.392 207.457 295.799L206.451 296.242C203.558 297.496 197.196 300.262 191.258 301.443C188.301 302.03 185.325 302.252 182.897 301.611C181.668 301.286 180.547 300.732 179.648 299.863C178.743 298.99 178.112 297.845 177.797 296.422L177.741 296.149C177.206 293.324 178.049 290.506 179.125 287.906C179.682 286.56 180.332 285.209 180.915 283.933C181.507 282.639 182.04 281.405 182.413 280.218V280.217C185.261 271.166 185.182 262.786 184.059 253.393C166.225 254.595 147.288 256.728 130.456 253.846C113.223 250.895 98.0957 242.675 88.3762 222.92L87.7493 221.619C74.8367 194.256 77.8736 163.982 91.0618 138.677C104.455 112.978 128.358 92.3187 156.828 84.9513C172.419 80.9176 189.721 81.9156 202.89 88.7355C216.128 95.5913 225.131 108.313 223.978 127.45C223.035 143.097 214.911 155.344 203.689 164.396C192.48 173.436 178.142 179.326 164.612 182.31C160.445 183.23 153.405 184.427 146.424 185.219C139.703 185.981 132.888 186.387 128.758 185.748L128.366 185.683C125.381 185.148 123.281 183.454 122.175 181.158C121.083 178.892 120.997 176.123 121.825 173.437C123.02 169.556 126.513 168.411 129.902 168.096C131.615 167.936 133.409 167.976 135.042 168.023C136.708 168.07 138.171 168.122 139.341 168.015L140.827 167.873C156.193 166.369 171.927 163.546 185.257 155.864C205.448 144.229 210.393 127.258 204.699 115.171C198.999 103.069 182.297 95.1352 157.711 102.312C135.592 108.77 117.098 125.45 106.593 146.023C96.0907 166.59 93.6159 190.96 103.396 212.794C107.303 221.514 112.64 227.226 118.89 230.918C125.155 234.619 132.4 236.327 140.167 236.927C147.939 237.527 156.177 237.014 164.411 236.314C172.616 235.616 180.844 234.729 188.472 234.611H188.473C190.977 234.575 193.361 234.898 195.372 235.952C197.419 237.025 198.991 238.808 199.928 241.502C203.788 252.6 203.322 266.356 201.962 277.824C216.244 272.419 227.732 259.059 233.779 245.08C235.105 242.017 236.003 238.654 236.878 235.297C237.745 231.973 238.593 228.63 239.819 225.751C240.187 224.881 240.804 223.931 241.495 223.095C242.184 222.261 243.003 221.473 243.811 220.969L243.812 220.968C244.293 220.669 244.972 220.416 245.722 220.192C246.492 219.961 247.417 219.738 248.439 219.522C250.483 219.089 252.979 218.672 255.529 218.272C260.679 217.463 265.991 216.728 268.595 216.057C306.634 206.248 324.864 175.467 323.564 145.695C322.264 115.941 301.45 87.1159 261.076 81.2277C260.265 81.1094 259.495 81.097 258.72 81.1134C257.974 81.1293 257.142 81.1762 256.361 81.1574C254.705 81.1174 253.014 80.7876 251.188 79.3507C249.303 77.8718 248.359 75.8433 247.669 73.8849C247.331 72.9261 247.024 71.8843 246.726 70.9796C246.417 70.0421 246.096 69.1746 245.693 68.3947L245.168 67.4005C222.771 25.5499 176.932 12.5871 131.89 19.6877C86.4726 26.8474 42.2344 54.368 24.2434 92.7306C18.0796 105.876 15.9789 121.072 19.1672 134.272C22.3466 147.434 30.7789 158.621 45.7678 163.918H45.7688C47.4085 164.496 49.4413 164.876 51.6585 165.272C53.8405 165.661 56.1872 166.064 58.3206 166.699C60.4498 167.333 62.4782 168.227 63.9797 169.666C65.518 171.14 66.4381 173.124 66.4358 175.767L66.4309 176.13C66.3789 177.929 65.9371 179.438 65.1321 180.659C64.2723 181.963 63.0467 182.864 61.6135 183.45C58.7924 184.604 55.077 184.573 51.3108 183.998C43.7411 182.843 35.3158 179.383 31.6965 177.46H31.6956C12.8391 167.424 3.1758 150.646 0.670172 132.216C-1.83137 113.816 2.79395 93.7641 12.4768 77.0246C37.0038 34.6064 87.663 6.15083 138.152 0.883945ZM261.601 65.1115C237.94 15.3943 188.304 -2.33675 138.36 2.8732C88.775 8.04565 39.1397 35.8218 14.7795 77.049L14.2083 78.0255C4.71775 94.4323 0.218167 114.042 2.65259 131.947C5.08312 149.824 14.4171 165.998 32.6331 175.694H32.634C36.1118 177.541 44.3215 180.908 51.6126 182.021C55.2768 182.58 58.5485 182.543 60.8567 181.6C61.9881 181.137 62.8629 180.467 63.4622 179.558C64.0625 178.647 64.4358 177.422 64.4358 175.767V175.766C64.4378 173.648 63.7251 172.193 62.596 171.111C61.43 169.993 59.7555 169.214 57.7493 168.616C55.7471 168.02 53.5246 167.636 51.3069 167.24C49.2603 166.875 47.1995 166.497 45.4495 165.922L45.1038 165.805C29.4057 160.258 20.544 148.486 17.2239 134.741C13.9127 121.033 16.1071 105.372 22.4329 91.881C40.7777 52.764 85.6928 24.9456 131.578 17.7121C177.126 10.5319 223.993 23.5969 246.929 66.4533L247.466 67.4709L247.642 67.8224C248.036 68.6437 248.346 69.5063 248.625 70.3537C248.955 71.3559 249.222 72.2719 249.556 73.2199C250.169 74.9594 250.898 76.4595 252.162 77.5627L252.423 77.7775L252.424 77.7785C253.821 78.8779 255.055 79.1257 256.409 79.1584C257.133 79.1758 257.828 79.1324 258.678 79.1144C259.499 79.097 260.395 79.1067 261.365 79.2482C302.71 85.2779 324.222 114.915 325.562 145.609C326.901 176.286 308.084 207.94 269.095 217.994H269.094C266.366 218.697 260.88 219.455 255.838 220.247C253.292 220.647 250.842 221.058 248.853 221.479C247.858 221.689 246.992 221.899 246.295 222.108C245.58 222.322 245.114 222.513 244.868 222.665C244.306 223.016 243.645 223.633 243.036 224.369C242.43 225.103 241.932 225.888 241.659 226.532L241.658 226.534C240.504 229.248 239.693 232.429 238.814 235.801C237.998 238.932 237.127 242.211 235.87 245.267L235.614 245.874C229.206 260.687 216.767 275.016 201.093 280.259L199.581 280.765L199.783 279.184C201.282 267.456 201.919 253.315 198.039 242.159C197.255 239.903 196.002 238.541 194.444 237.724C192.85 236.889 190.847 236.577 188.503 236.611C180.967 236.727 172.854 237.603 164.581 238.307C156.337 239.008 147.959 239.534 140.013 238.921C132.063 238.307 124.49 236.549 117.873 232.64C111.241 228.722 105.634 222.68 101.571 213.611C91.5005 191.13 94.0852 166.119 104.812 145.112C115.536 124.111 134.44 107.023 157.151 100.392C182.294 93.0523 200.238 101.005 206.509 114.319C212.787 127.649 207.028 145.627 186.255 157.598C172.103 165.753 155.417 168.532 139.527 170.006H139.526C138.206 170.127 136.594 170.067 134.986 170.022C133.344 169.975 131.663 169.94 130.087 170.087C126.897 170.384 124.554 171.371 123.737 174.026V174.027C123.028 176.325 123.143 178.56 123.977 180.29C124.797 181.992 126.347 183.289 128.719 183.714L129.079 183.774C132.895 184.362 139.451 183.997 146.198 183.232C153.121 182.447 160.091 181.26 164.18 180.357C177.49 177.421 191.523 171.64 202.434 162.839C213.332 154.049 221.079 142.284 221.981 127.33C223.084 109.023 214.543 97.0231 201.97 90.5119C189.328 83.9648 172.55 82.9499 157.329 86.8878C129.465 94.0987 105.995 114.35 92.8352 139.602C79.6791 164.846 76.8656 195.002 90.1702 222.036C99.554 241.109 114.066 249.009 130.794 251.874C147.297 254.7 165.859 252.617 183.815 251.404L183.806 251.33H184.948L184.981 252.324L185.932 252.205C187.139 261.798 187.373 270.511 184.599 279.906L184.322 280.818C183.909 282.132 183.33 283.461 182.734 284.765C182.129 286.087 181.511 287.37 180.973 288.671C179.96 291.119 179.327 293.404 179.668 295.56L179.75 295.989L179.85 296.38C180.105 297.26 180.517 297.923 181.037 298.425C181.638 299.004 182.429 299.418 183.407 299.677C185.393 300.202 188.009 300.05 190.868 299.482C196.564 298.35 202.736 295.673 205.656 294.407L206.638 293.975C227.135 284.801 241.13 269.069 249.526 248.204V248.203C249.783 247.565 250.095 246.536 250.453 245.278C250.804 244.047 251.197 242.612 251.601 241.245C252.005 239.877 252.435 238.529 252.874 237.444C253.094 236.901 253.326 236.4 253.571 235.985C253.801 235.593 254.101 235.173 254.495 234.906L254.691 234.774L254.925 234.743C289.687 230.191 321.058 213.379 333.401 179.189V179.188C352.932 125.093 319.49 70.4573 262.42 65.6789L261.847 65.631L261.601 65.1115Z" fill="black"/>
<path d="M19.3091 396.773C17.1304 396.773 15.4678 396.171 14.3211 394.967C13.1744 393.763 12.6011 392.072 12.6011 389.893V342.163C12.6011 339.927 13.1744 338.236 14.3211 337.089C15.5251 335.942 17.2164 335.369 19.3951 335.369H40.2931C47.0584 335.369 52.2758 337.089 55.9451 340.529C59.6144 343.912 61.4491 348.642 61.4491 354.719C61.4491 360.796 59.6144 365.555 55.9451 368.995C52.2758 372.435 47.0584 374.155 40.2931 374.155H25.9311V389.893C25.9311 392.072 25.3578 393.763 24.2111 394.967C23.1218 396.171 21.4878 396.773 19.3091 396.773ZM25.9311 363.835H38.0571C41.4971 363.835 44.1058 363.061 45.8831 361.513C47.7178 359.965 48.6351 357.7 48.6351 354.719C48.6351 351.738 47.7178 349.502 45.8831 348.011C44.1058 346.52 41.4971 345.775 38.0571 345.775H25.9311V363.835ZM73.6476 396.773C72.0423 396.773 70.7236 396.4 69.6916 395.655C68.717 394.91 68.0863 393.906 67.7996 392.645C67.5703 391.384 67.8283 389.979 68.5736 388.431L90.5896 340.185C91.507 338.236 92.5963 336.831 93.8576 335.971C95.119 335.054 96.581 334.595 98.2436 334.595C99.9063 334.595 101.368 335.054 102.63 335.971C103.891 336.831 104.952 338.236 105.812 340.185L128 388.431C128.745 389.979 129.003 391.412 128.774 392.731C128.602 393.992 128.028 394.996 127.054 395.741C126.079 396.429 124.818 396.773 123.27 396.773C121.32 396.773 119.801 396.314 118.712 395.397C117.68 394.48 116.762 393.046 115.96 391.097L110.8 379.143L116.132 382.841H80.2696L85.6016 379.143L80.5276 391.097C79.6676 393.104 78.7503 394.566 77.7756 395.483C76.8583 396.343 75.4823 396.773 73.6476 396.773ZM98.0717 349.559L87.0636 375.789L84.7416 372.435H111.66L109.338 375.789L98.2436 349.559H98.0717ZM151.472 396.773C149.465 396.773 147.917 396.228 146.828 395.139C145.796 393.992 145.28 392.387 145.28 390.323V341.303C145.28 339.124 145.796 337.462 146.828 336.315C147.917 335.168 149.35 334.595 151.128 334.595C152.676 334.595 153.851 334.91 154.654 335.541C155.514 336.114 156.488 337.089 157.578 338.465L187.764 376.907H185.442V340.959C185.442 338.952 185.958 337.404 186.99 336.315C188.079 335.168 189.627 334.595 191.634 334.595C193.64 334.595 195.16 335.168 196.192 336.315C197.281 337.404 197.826 338.952 197.826 340.959V390.581C197.826 392.473 197.338 393.992 196.364 395.139C195.389 396.228 194.07 396.773 192.408 396.773C190.802 396.773 189.512 396.458 188.538 395.827C187.62 395.196 186.617 394.193 185.528 392.817L155.428 354.375H157.664V390.323C157.664 392.387 157.148 393.992 156.116 395.139C155.084 396.228 153.536 396.773 151.472 396.773ZM239.702 396.773C237.523 396.773 235.86 396.171 234.714 394.967C233.567 393.763 232.994 392.043 232.994 389.807V364.867L235.746 372.521L215.45 343.711C214.647 342.507 214.303 341.217 214.418 339.841C214.532 338.408 215.106 337.175 216.138 336.143C217.17 335.111 218.632 334.595 220.524 334.595C221.9 334.595 223.132 334.939 224.222 335.627C225.368 336.315 226.458 337.404 227.49 338.895L241.25 358.761H238.498L252.258 338.895C253.347 337.347 254.408 336.258 255.44 335.627C256.529 334.939 257.79 334.595 259.224 334.595C261.058 334.595 262.492 335.082 263.524 336.057C264.556 336.974 265.1 338.15 265.158 339.583C265.215 340.959 264.728 342.392 263.696 343.883L243.658 372.521L246.324 364.867V389.807C246.324 394.451 244.116 396.773 239.702 396.773ZM277.579 396.773C275.973 396.773 274.655 396.4 273.623 395.655C272.648 394.91 272.017 393.906 271.731 392.645C271.501 391.384 271.759 389.979 272.505 388.431L294.521 340.185C295.438 338.236 296.527 336.831 297.789 335.971C299.05 335.054 300.512 334.595 302.175 334.595C303.837 334.595 305.299 335.054 306.561 335.971C307.822 336.831 308.883 338.236 309.743 340.185L331.931 388.431C332.676 389.979 332.934 391.412 332.705 392.731C332.533 393.992 331.959 394.996 330.985 395.741C330.01 396.429 328.749 396.773 327.201 396.773C325.251 396.773 323.732 396.314 322.643 395.397C321.611 394.48 320.693 393.046 319.891 391.097L314.731 379.143L320.063 382.841H284.201L289.533 379.143L284.459 391.097C283.599 393.104 282.681 394.566 281.707 395.483C280.789 396.343 279.413 396.773 277.579 396.773ZM302.003 349.559L290.995 375.789L288.673 372.435H315.591L313.269 375.789L302.175 349.559H302.003Z" fill="black"/>
</svg>
